#!OML:ASF I:\golf\golf\golf 2\Subject 1\2002-09-07\Subject1.ASF
:FULLY-SPECIFIED
:DEGREES
141
root 0.921485 17.8757 -9.68028 10.6188 -4.52823 -6.94799
lowerback -4.45895 1.1705 -1.91501
upperback 1.29322 1.5301 4.06417
thorax 3.68081 0.670481 5.41872
lowerneck -15.9821 0.15806 0.473169
upperneck 41.3863 2.72818 -6.10548
head 18.3606 0.302764 -2.44334
rclavicle -2.02512e-014 6.95746e-015
rhumerus -26.6331 2.53215 -84.6711
rradius 27.4819
rwrist -7.79239
rhand -19.3996 11.7388
rfingers 7.12502
rthumb 6.91943 -18.1281
lclavicle -2.02512e-014 6.95746e-015
lhumerus -28.6127 3.23699 85.4453
lradius 29.1224
lwrist 2.40616
lhand -7.64179 30.326
lfingers 7.12502
lthumb 18.2535 59.4896
rfemur -18.8195 3.77599 20.5037
rtibia 29.4953
rfoot -15.9572 -3.25533
rtoes -2.89392
lfemur -18.0556 3.49068 -13.5132
ltibia 34.1817
lfoot -20.8055 3.09132
ltoes -5.32415
142
root 0.943841 17.8709 -9.67638 10.617 -4.59127 -6.94498
lowerback -4.29194 1.21417 -1.84179
upperback 1.33598 1.58612 3.98647
thorax 3.62858 0.701503 5.29427
lowerneck -16.1028 0.202676 0.470464
upperneck 41.4082 2.7804 -6.04842
head 18.4087 0.329482 -2.40783
rclavicle -2.45499e-014 1.59028e-014
rhumerus -26.5165 2.52308 -84.6993
rradius 27.5424
rwrist -7.76975
rhand -19.3979 11.4215
rfingers 7.12502
rthumb 6.92102 -18.4454
lclavicle -2.45499e-014 1.59028e-014
lhumerus -28.5236 3.13786 85.3695
lradius 29.2659
lwrist 2.45468
lhand -7.73206 30.4034
lfingers 7.12502
lthumb 18.1666 59.575
rfemur -18.9177 3.80796 20.4126
rtibia 29.6501
rfoot -15.9675 -3.25703
rtoes -2.70257
lfemur -18.0523 3.35846 -13.6133
ltibia 34.2338
lfoot -20.8261 3.32008
ltoes -6.11653
143
root 0.96625 17.8687 -9.67082 10.6776 -4.59362 -6.93776
lowerback -4.33913 1.25673 -1.83823
upperback 1.36924 1.64361 3.9438
thorax 3.685 0.729049 5.25372
lowerneck -16.023 0.197122 0.526122
upperneck 41.3617 2.77473 -6.10748
head 18.3606 0.330038 -2.44379
rclavicle -2.30093e-014 2.51463e-014
rhumerus -26.4661 2.56903 -84.7346
rradius 27.5989
rwrist -8.11447
rhand -19.6622 11.2399
rfingers 7.12502
rthumb 6.66589 -18.6352
lclavicle -2.30093e-014 2.51463e-014
lhumerus -28.4798 3.00897 85.3538
lradius 29.4598
lwrist 2.53526
lhand -7.78978 30.1846
lfingers 7.12502
lthumb 18.1111 59.3614
rfemur -19.1075 3.80997 20.3383
rtibia 29.865
rfoot -15.9882 -3.44654
rtoes -3.67592
lfemur -18.1184 3.26106 -13.713
ltibia 34.2527
lfoot -20.8713 3.35999
ltoes -5.74948
144
root 0.982002 17.8658 -9.66199 10.7053 -4.52807 -6.81037
lowerback -4.38624 1.25167 -2.11985
upperback 1.33817 1.65552 3.91188
thorax 3.67157 0.729781 5.38242
lowerneck -15.7293 0.15229 0.647062
upperneck 41.3085 2.7141 -6.25087
head 18.2494 0.309982 -2.53971
rclavicle 4.63914e-014 5.02925e-014
rhumerus -26.5808 2.28594 -84.656
rradius 27.7518
rwrist -7.65357
rhand -19.3931 10.9393
rfingers 7.12502
rthumb 6.92573 -18.9274
lclavicle 4.63914e-014 5.02925e-014
lhumerus -28.5849 2.8013 85.3303
lradius 29.669
lwrist 2.69423
lhand -7.75153 29.9549
lfingers 7.12502
lthumb 18.1479 59.1282
rfemur -19.2497 3.89824 20.1603
rtibia 30.1279
rfoot -16.0225 -3.79002
rtoes -4.60135
lfemur -18.1655 3.36719 -13.9062
ltibia 34.254
lfoot -20.8751 3.11842
ltoes -5.13567
145
root 0.995776 17.8597 -9.65382 10.6483 -4.48896 -6.61657
lowerback -4.21206 1.21378 -2.43926
upperback 1.32999 1.625 3.85219
thorax 3.56132 0.710806 5.49362
lowerneck -15.6978 0.189504 0.683216
upperneck 41.3722 2.76822 -6.26294
head 18.2837 0.335605 -2.54488
rclavicle 5.96354e-015 -7.7526e-015
rhumerus -26.5954 2.2147 -84.6519
rradius 27.8389
rwrist -7.32725
rhand -19.0633 11.2055
rfingers 7.12502
rthumb 7.24408 -18.6505
lclavicle 5.96354e-015 -7.7526e-015
lhumerus -28.6217 2.751 85.2294
lradius 29.8239
lwrist 2.75744
lhand -7.7487 30.0849
lfingers 7.12502
lthumb 18.1506 59.258
rfemur -19.3166 3.98232 19.905
rtibia 30.4258
rfoot -16.1161 -3.98298
rtoes -4.6284
lfemur -18.1198 3.51107 -14.1635
ltibia 34.252
lfoot -20.9331 2.88792
ltoes -5.11222
146
root 1.0155 17.8531 -9.64857 10.6348 -4.593 -6.53244
lowerback -3.83645 1.23553 -2.48482
upperback 1.2373 1.65857 3.76183
thorax 3.25031 0.736858 5.4113
lowerneck -15.7191 0.268826 0.682871
upperneck 41.4762 2.88442 -6.22473
head 18.3594 0.385976 -2.51019
rclavicle -1.08089e-014 -4.47266e-015
rhumerus -26.7096 2.43092 -84.7754
rradius 27.9519
rwrist -7.52314
rhand -19.0322 11.8631
rfingers 7.12502
rthumb 7.27403 -17.9918
lclavicle -1.08089e-014 -4.47266e-015
lhumerus -28.7452 2.81591 85.0757
lradius 30.0041
lwrist 2.72096
lhand -7.75711 30.2857
lfingers 7.12502
lthumb 18.1425 59.4596
rfemur -19.4873 3.97457 19.7305
rtibia 30.7452
rfoot -16.249 -3.79194
rtoes -2.4758
lfemur -18.0871 3.5898 -14.3507
ltibia 34.265
lfoot -20.9673 2.9778
ltoes -5.98125
147
root 1.03871 17.8473 -9.64442 10.6695 -4.65867 -6.52738
lowerback -4.06962 1.29516 -2.45039
upperback 1.45511 1.73574 3.72306
thorax 3.60165 0.764151 5.3694
lowerneck -15.7116 0.241413 0.659186
upperneck 41.2692 2.86692 -6.28843
head 18.233 0.368504 -2.52805
rclavicle -4.62174e-015 -2.51463e-014
rhumerus -26.3979 2.4687 -84.7437
rradius 28.1102
rwrist -7.63727
rhand -18.9156 11.5045
rfingers 7.12502
rthumb 7.38662 -18.3466
lclavicle -4.62174e-015 -2.51463e-014
lhumerus -28.3956 2.84095 85.0878
lradius 30.1556
lwrist 2.67054
lhand -7.70581 30.2798
lfingers 7.12502
lthumb 18.1919 59.4491
rfemur -19.7244 3.816 19.6523
rtibia 31.0627
rfoot -16.4058 -3.49403
rtoes 0.585675
lfemur -18.1246 3.6058 -14.4619
ltibia 34.3171
lfoot -20.9942 3.05456
ltoes -6.35441
148
root 1.05814 17.8434 -9.64118 10.6973 -4.56757 -6.50599
lowerback -3.98815 1.30585 -2.53011
upperback 1.45513 1.75447 3.70774
thorax 3.55179 0.77312 5.39706
lowerneck -15.5822 0.214233 0.692063
upperneck 41.1974 2.8365 -6.35539
head 18.155 0.355182 -2.56616
rclavicle -6.68413e-015 3.52843e-014
rhumerus -26.3565 2.36947 -84.7084
rradius 28.2049
rwrist -7.54139
rhand -18.9269 11.4231
rfingers 7.12502
rthumb 7.37571 -18.4283
lclavicle -6.68413e-015 3.52843e-014
lhumerus -28.3493 2.72734 85.0735
lradius 30.2805
lwrist 2.77492
lhand -7.71247 30.2165
lfingers 7.12502
lthumb 18.1855 59.3864
rfemur -19.9276 3.72614 19.6008
rtibia 31.3791
rfoot -16.44 -3.74075
rtoes -0.263171
lfemur -18.2232 3.65454 -14.5492
ltibia 34.4003
lfoot -21.1183 2.96571
ltoes -6.84289
149
root 1.0746 17.8399 -9.63743 10.6787 -4.45422 -6.47836
lowerback -3.78136 1.27777 -2.66526
upperback 1.44841 1.7219 3.72536
thorax 3.42746 0.75687 5.48336
lowerneck -15.5854 0.225203 0.651862
upperneck 41.2378 2.88246 -6.37878
head 18.1839 0.363932 -2.56336
rclavicle -1.1455e-014 2.18663e-015
rhumerus -26.3055 2.38324 -84.6613
rradius 28.271
rwrist -7.45599
rhand -19.0926 11.7315
rfingers 7.12502
rthumb 7.21576 -18.1255
lclavicle -1.1455e-014 2.18663e-015
lhumerus -28.3398 2.78703 85.0097
lradius 30.4044
lwrist 2.76137
lhand -7.57426 30.269
lfingers 7.12502
lthumb 18.3184 59.4265
rfemur -20.0728 3.80178 19.5527
rtibia 31.7287
rfoot -16.2803 -4.35702
rtoes -3.71513
lfemur -18.2753 3.73648 -14.6206
ltibia 34.4719
lfoot -21.249 2.85826
ltoes -7.7678
150
root 1.09467 17.8339 -9.62969 10.645 -4.41553 -6.32332
lowerback -3.69097 1.24224 -2.80372
upperback 1.55867 1.68067 3.67239
thorax 3.49346 0.729973 5.50394
lowerneck -15.7792 0.259063 0.509184
upperneck 41.2423 2.96828 -6.32176
head 18.2425 0.380465 -2.49609
rclavicle 3.44146e-014 3.30976e-014
rhumerus -26.1143 2.58143 -84.667
rradius 28.4197
rwrist -7.55873
rhand -19.1365 11.7068
rfingers 7.12502
rthumb 7.17343 -18.1516
lclavicle 3.44146e-014 3.30976e-014
lhumerus -28.196 2.89866 84.9207
lradius 30.5927
lwrist 2.72791
lhand -7.35385 30.2585
lfingers 7.12502
lthumb 18.5305 59.3959
rfemur -20.2398 3.72076 19.3477
rtibia 32.1358
rfoot -16.2145 -4.60271
rtoes -4.85409
lfemur -18.26 3.70448 -14.8503
ltibia 34.5085
lfoot -21.3393 2.71225
ltoes -7.83574
151
root 1.11665 17.8255 -9.62035 10.6229 -4.48406 -6.05047
lowerback -3.63386 1.2568 -3.02971
upperback 1.63128 1.71439 3.54717
thorax 3.53023 0.740715 5.50296
lowerneck -15.813 0.283937 0.454286
upperneck 41.1644 3.01633 -6.30175
head 18.2071 0.39391 -2.46335
rclavicle -1.33683e-014 -4.56211e-014
rhumerus -26.0589 2.74351 -84.7124
rradius 28.6493
rwrist -7.74619
rhand -19.1255 11.849
rfingers 7.12502
rthumb 7.18398 -18.0091
lclavicle -1.33683e-014 -4.56211e-014
lhumerus -28.0642 2.80565 84.8548
lradius 30.7304
lwrist 3.00562
lhand -7.49741 30.0554
lfingers 7.12502
lthumb 18.3924 59.2059
rfemur -20.4616 3.63235 18.986
rtibia 32.5923
rfoot -16.2844 -4.5602
rtoes -3.82498
lfemur -18.2264 3.56841 -15.2399
ltibia 34.5257
lfoot -21.3181 2.73295
ltoes -7.47616
152
root 1.13742 17.8164 -9.61329 10.5976 -4.50155 -5.89229
lowerback -3.68685 1.28443 -3.23322
upperback 1.71574 1.76391 3.49344
thorax 3.63834 0.756674 5.56962
lowerneck -15.6822 0.265458 0.513048
upperneck 41.0904 3.01068 -6.41878
head 18.1316 0.388034 -2.52524
rclavicle -1.62755e-014 -3.24019e-014
rhumerus -26.0784 2.87293 -84.6992
rradius 28.9316
rwrist -7.94409
rhand -19.138 11.4909
rfingers 7.12502
rthumb 7.17192 -18.3676
lclavicle -1.62755e-014 -3.24019e-014
lhumerus -27.929 2.70747 84.8488
lradius 30.8588
lwrist 3.3468
lhand -7.75289 30.2114
lfingers 7.12502
lthumb 18.1466 59.3849
rfemur -20.6932 3.58012 18.7635
rtibia 33.0901
rfoot -16.3576 -4.56219
rtoes -2.80185
lfemur -18.2009 3.45919 -15.4907
ltibia 34.5309
lfoot -21.2035 2.73276
ltoes -7.16514
153
root 1.15627 17.8107 -9.60716 10.628 -4.36675 -5.88662
lowerback -3.64597 1.26223 -3.27167
upperback 1.75998 1.73487 3.4987
thorax 3.66359 0.73957 5.59514
lowerneck -15.7083 0.254988 0.526854
upperneck 41.1222 3.03934 -6.52487
head 18.1639 0.387002 -2.57472
rclavicle -2.17048e-014 -4.24405e-014
rhumerus -26.0281 2.99159 -84.6697
rradius 29.1596
rwrist -8.05263
rhand -19.0782 10.959
rfingers 7.12502
rthumb 7.22965 -18.8975
lclavicle -2.17048e-014 -4.24405e-014
lhumerus -27.858 2.6196 84.8286
lradius 31.0937
lwrist 3.6442
lhand -7.85804 30.8978
lfingers 7.12502
lthumb 18.0454 60.0807
rfemur -20.9671 3.42755 18.7479
rtibia 33.6006
rfoot -16.375 -4.64994
rtoes -2.35432
lfemur -18.2638 3.52484 -15.5364
ltibia 34.5463
lfoot -21.22 2.35355
ltoes -6.45688
154
root 1.17427 17.8043 -9.60122 10.6182 -4.21781 -5.88185
lowerback -3.51837 1.27436 -3.20242
upperback 1.80968 1.74752 3.4138
thorax 3.64571 0.748162 5.46368
lowerneck -15.7531 0.251448 0.64015
upperneck 41.1372 3.01909 -6.57509
head 18.1864 0.389946 -2.62444
rclavicle 1.83379e-014 2.61402e-014
rhumerus -25.9434 2.75131 -84.6813
rradius 29.3064
rwrist -7.92076
rhand -18.9787 10.9498
rfingers 7.12502
rthumb 7.32569 -18.9033
lclavicle 1.83379e-014 2.61402e-014
lhumerus -27.7639 2.36001 84.7192
lradius 31.3091
lwrist 3.88202
lhand -8.02533 31.1273
lfingers 7.12502
lthumb 17.8845 60.325
rfemur -21.197 3.35966 18.7427
rtibia 34.1182
rfoot -16.2471 -4.89695
rtoes -2.38059
lfemur -18.3057 3.68227 -15.5768
ltibia 34.5975
lfoot -21.3603 1.83971
ltoes -4.95792
155
root 1.19558 17.7973 -9.59522 10.5536 -4.1849 -5.79556
lowerback -3.33471 1.31945 -3.27153
upperback 1.77988 1.81124 3.32376
thorax 3.50398 0.78393 5.40471
lowerneck -15.5311 0.254474 0.819919
upperneck 41.1777 2.98455 -6.63313
head 18.1512 0.400552 -2.69101
rclavicle 2.2239e-014 -2.38045e-014
rhumerus -26.1172 2.5546 -84.6697
rradius 29.5024
rwrist -7.79734
rhand -18.8749 11.1762
rfingers 7.12502
rthumb 7.42592 -18.6735
lclavicle 2.2239e-014 -2.38045e-014
lhumerus -27.8613 2.26914 84.5909
lradius 31.4577
lwrist 3.82757
lhand -8.08118 30.9303
lfingers 7.12502
lthumb 17.8307 60.1328
rfemur -21.4265 3.385 18.6201
rtibia 34.6791
rfoot -16.1686 -5.17672
rtoes -2.16033
lfemur -18.2597 3.68847 -15.737
ltibia 34.6435
lfoot -21.4388 1.60526
ltoes -3.69255
